HIERARCHY
ROOT joint_Root
{
	OFFSET 0.0 0.0 0.0
	CHANNELS 6 Xposition Yposition Zposition Zrotation Xrotation Yrotation 
	JOINT Hips
	{
		OFFSET -0.726466 93.3139 -2.00062
		CHANNELS 6 Xposition Yposition Zposition Zrotation Xrotation Yrotation 
		JOINT Spine
		{
			OFFSET 15.7357 0.0 0.0
			CHANNELS 6 Xposition Yposition Zposition Zrotation Xrotation Yrotation 
			JOINT Chest
			{
				OFFSET 8.98455 -0.406207 0.0
				CHANNELS 6 Xposition Yposition Zposition Zrotation Xrotation Yrotation 
				JOINT Neck
				{
					OFFSET 16.3773 0.0 0.0
					CHANNELS 6 Xposition Yposition Zposition Zrotation Xrotation Yrotation 
					JOINT Head
					{
						OFFSET 6.45672 0.0 0.0
						CHANNELS 6 Xposition Yposition Zposition Zrotation Xrotation Yrotation 
						End Site
						{
							OFFSET 0.0 0.0 0.0
						}
					}
				}
				JOINT Shoulder_L
				{
					OFFSET 12.9942 -0.242716 4.98039
					CHANNELS 6 Xposition Yposition Zposition Zrotation Xrotation Yrotation 
					JOINT UpperArm_L
					{
						OFFSET 5.34809 0.0 0.0
						CHANNELS 6 Xposition Yposition Zposition Zrotation Xrotation Yrotation 
						JOINT LowerArm_L
						{
							OFFSET 24.3286 1.87007e-05 0.0
							CHANNELS 6 Xposition Yposition Zposition Zrotation Xrotation Yrotation 
							JOINT Hand_L
							{
								OFFSET 22.2916 0.0 0.0
								CHANNELS 6 Xposition Yposition Zposition Zrotation Xrotation Yrotation 
								End Site
								{
									OFFSET 0.0 0.0 0.0
								}
							}
						}
					}
				}
				JOINT Shoulder_R
				{
					OFFSET 12.9945 -0.242716 -4.98039
					CHANNELS 6 Xposition Yposition Zposition Zrotation Xrotation Yrotation 
					JOINT UpperArm_R
					{
						OFFSET -5.34813 0.0 0.0
						CHANNELS 6 Xposition Yposition Zposition Zrotation Xrotation Yrotation 
						JOINT LowerArm_R
						{
							OFFSET -24.3289 0.000322201 0.0
							CHANNELS 6 Xposition Yposition Zposition Zrotation Xrotation Yrotation 
							JOINT Hand_R
							{
								OFFSET -22.2915 -0.000108084 0.0
								CHANNELS 6 Xposition Yposition Zposition Zrotation Xrotation Yrotation 
								End Site
								{
									OFFSET 0.0 0.0 0.0
								}
							}
						}
					}
				}
			}
		}
		JOINT UpperLeg_L
		{
			OFFSET -2.19248 -6.46944 0.0
			CHANNELS 6 Xposition Yposition Zposition Zrotation Xrotation Yrotation 
			JOINT LowerLeg_L
			{
				OFFSET 39.0811 0.0 -1.23785e-05
				CHANNELS 6 Xposition Yposition Zposition Zrotation Xrotation Yrotation 
				JOINT Foot_L
				{
					OFFSET 40.9854 0.0 -1.26872e-05
					CHANNELS 6 Xposition Yposition Zposition Zrotation Xrotation Yrotation 
					JOINT Toes_L
					{
						OFFSET 11.7543 0.0 0.0
						CHANNELS 6 Xposition Yposition Zposition Zrotation Xrotation Yrotation 
						End Site
						{
							OFFSET 0.0 0.0 0.0
						}
					}
				}
			}
		}
		JOINT UpperLeg_R
		{
			OFFSET -2.19251 6.46944 0.0
			CHANNELS 6 Xposition Yposition Zposition Zrotation Xrotation Yrotation 
			JOINT LowerLeg_R
			{
				OFFSET -39.0811 -0.00228153 -0.0401928
				CHANNELS 6 Xposition Yposition Zposition Zrotation Xrotation Yrotation 
				JOINT Foot_R
				{
					OFFSET -40.9854 0.0 0.0
					CHANNELS 6 Xposition Yposition Zposition Zrotation Xrotation Yrotation 
					JOINT Toes_R
					{
						OFFSET -11.7543 0.0 0.0
						CHANNELS 6 Xposition Yposition Zposition Zrotation Xrotation Yrotation 
						End Site
						{
							OFFSET 0.0 0.0 0.0
						}
					}
				}
			}
		}
	}
}
MOTION
Frames:	8
Frame Time:	0.0333333
0.000000 0.000000 0.000000 0.000000 0.000000 -0.000000 1.149230 91.005200 -376.974000 82.024500 8.589380 -12.841300 15.735700 0.000005 -0.000001 57.632900 81.104700 -53.929800 8.984550 -0.406207 -0.000000 7.659420 -9.491160 8.049030 16.377300 -0.000001 -0.000001 -1.752760 -2.100790 -1.195430 6.456720 -0.000001 -0.000000 -2.468640 2.170740 1.006860 12.994200 -0.242716 4.980390 -86.643900 -10.823200 -72.656900 5.348090 -0.000007 -0.000001 -76.132000 18.869800 -30.446400 24.328600 0.000019 0.000005 -9.284330 3.060180 -108.091000 22.291600 -0.000001 0.000005 7.889230 5.659580 -15.940900 12.994500 -0.242716 -4.980390 92.244300 -5.621840 -68.195600 -5.348130 -0.000001 -0.000004 -80.522100 36.653200 29.606600 -24.328900 0.000322 -0.000009 3.138420 1.192320 -69.218700 -22.291500 -0.000108 -0.000004 9.219460 5.662430 -16.346300 -2.192480 -6.469440 -0.000000 -168.785000 -7.087110 -0.602834 39.081100 -0.000007 -0.000012 0.011193 -0.023918 25.079400 40.985400 -0.000006 -0.000013 2.838200 6.250220 -54.406600 11.754300 -0.000000 0.000003 -0.184666 -0.619018 -42.999700 -2.192510 6.469440 -0.000001 -165.469000 7.510430 130.226000 -39.081100 -0.002282 -0.040193 -0.051031 0.007512 82.046800 -40.985400 0.000008 0.000006 7.933790 -13.612700 -58.166100 -11.754300 -0.000006 -0.000006 -0.027157 -0.204123 -24.929100
0.000000 0.000000 0.000000 0.000000 0.000000 -0.000000 0.799383 93.743000 -368.730000 82.101700 7.099450 -13.412000 15.735700 0.000005 -0.000001 56.118500 81.328800 -52.172800 8.984550 -0.406207 -0.000000 7.054840 -9.660440 8.494920 16.377300 -0.000001 -0.000001 -1.241570 -1.508560 -1.534310 6.456720 -0.000001 -0.000000 -2.563090 2.787950 0.323036 12.994200 -0.242716 4.980390 -86.490900 -11.090200 -72.318100 5.348090 -0.000007 -0.000001 -74.648800 20.386900 -29.195400 24.328600 0.000019 0.000005 -9.114310 3.573500 -111.231000 22.291600 -0.000001 0.000005 6.475050 5.646390 -14.683400 12.994500 -0.242716 -4.980390 92.935500 -7.459050 -68.445000 -5.348130 -0.000001 -0.000004 -82.252400 33.905900 31.010300 -24.328900 0.000322 -0.000009 3.404210 1.132440 -71.634700 -22.291500 -0.000108 -0.000004 9.063420 5.654980 -15.510200 -2.192480 -6.469440 -0.000000 -166.817000 -12.704400 3.926590 39.081100 -0.000007 -0.000012 0.032363 -0.094938 18.823700 40.985400 -0.000006 -0.000013 -1.818950 8.879340 -35.510700 11.754300 -0.000000 0.000003 -0.069544 -0.361629 -31.549200 -2.192510 6.469440 -0.000001 -166.613000 5.496210 133.497000 -39.081100 -0.002282 -0.040193 0.004006 -0.000432 62.260900 -40.985400 0.000008 0.000006 6.130480 -8.394920 -61.863000 -11.754300 -0.000006 -0.000006 -0.028462 -0.210327 -25.186100
0.000000 0.000000 0.000000 0.000000 0.000000 -0.000000 0.820255 94.836900 -360.454000 83.246100 5.745180 -14.188400 15.735700 0.000005 -0.000001 53.442300 81.663200 -49.632000 8.984550 -0.406207 -0.000000 6.042680 -9.963220 8.154820 16.377300 -0.000001 -0.000001 -1.359310 -0.897667 -1.604720 6.456720 -0.000001 -0.000000 -1.903650 3.389310 -0.001249 12.994200 -0.242716 4.980390 -86.278900 -11.684700 -72.196400 5.348090 -0.000007 -0.000001 -74.198000 22.931100 -26.071800 24.328600 0.000019 0.000005 -10.201900 4.178720 -112.043000 22.291600 -0.000001 0.000005 7.690410 5.647570 -14.777000 12.994500 -0.242716 -4.980390 93.215000 -8.309210 -68.759300 -5.348130 -0.000001 -0.000004 -82.894700 31.738500 31.279500 -24.328900 0.000322 -0.000009 2.424890 0.670427 -74.574900 -22.291500 -0.000108 -0.000004 8.784160 5.644010 -14.464600 -2.192480 -6.469440 -0.000000 -168.097000 -10.957500 5.467730 39.081100 -0.000007 -0.000012 0.047460 -0.122553 21.169300 40.985400 -0.000006 -0.000013 -1.510440 4.095990 -31.623000 11.754300 -0.000000 0.000003 -0.008235 -0.089952 -20.240000 -2.192510 6.469440 -0.000001 -167.868000 6.860550 137.863000 -39.081100 -0.002282 -0.040193 -0.000232 0.004086 40.656300 -40.985400 0.000008 0.000006 2.186850 -2.404280 -63.752100 -11.754300 -0.000006 -0.000006 -0.030664 -0.220490 -25.607600
0.000000 0.000000 0.000000 0.000000 0.000000 -0.000000 0.903858 94.517000 -351.660000 86.523500 5.238670 -13.352900 15.735700 0.000005 -0.000001 51.411400 81.456000 -48.558400 8.984550 -0.406207 -0.000000 5.944790 -10.676900 6.268610 16.377300 -0.000001 -0.000001 -1.788940 -0.991835 -1.482190 6.456720 -0.000001 -0.000000 -1.665590 3.802430 0.433809 12.994200 -0.242716 4.980390 -86.307200 -12.124600 -72.918600 5.348090 -0.000007 -0.000001 -74.895500 25.552000 -21.351900 24.328600 0.000019 0.000005 -10.544500 4.013640 -110.604000 22.291600 -0.000001 0.000005 8.061740 5.654740 -15.489100 12.994500 -0.242716 -4.980390 92.770200 -7.091560 -68.597500 -5.348130 -0.000001 -0.000004 -81.885300 30.455200 29.295500 -24.328900 0.000322 -0.000009 2.030370 0.476211 -76.819100 -22.291500 -0.000108 -0.000004 9.197710 5.641070 -14.215300 -2.192480 -6.469440 -0.000000 -173.083000 -4.123490 6.099670 39.081100 -0.000007 -0.000012 0.036921 -0.061469 30.990800 40.985400 -0.000006 -0.000013 0.397185 0.133438 -33.507900 11.754300 -0.000000 0.000003 -0.010235 -0.105394 -20.871200 -2.192510 6.469440 -0.000001 -169.251000 12.292600 143.589000 -39.081100 -0.002282 -0.040193 -0.008013 0.027453 22.426700 -40.985400 0.000008 0.000006 -0.457419 2.194330 -65.696300 -11.754300 -0.000006 -0.000006 -0.032597 -0.229127 -25.966400
0.000000 0.000000 0.000000 0.000000 0.000000 -0.000000 0.966851 93.187600 -342.565000 88.884600 3.676190 -11.325100 15.735700 0.000005 -0.000001 55.725600 81.251100 -53.651500 8.984550 -0.406207 -0.000000 6.953930 -9.836390 4.750860 16.377300 -0.000001 -0.000001 -1.719940 -1.142850 -1.645290 6.456720 -0.000001 -0.000000 -2.713110 3.656480 0.563599 12.994200 -0.242716 4.980390 -86.660200 -11.476700 -73.653900 5.348090 -0.000007 -0.000001 -75.786600 28.291700 -16.723000 24.328600 0.000019 0.000005 -10.047000 2.809260 -105.457000 22.291600 -0.000001 0.000005 8.176560 5.660150 -16.072800 12.994500 -0.242716 -4.980390 92.116300 -5.503610 -68.929000 -5.348130 -0.000001 -0.000004 -80.599100 28.873600 24.106700 -24.328900 0.000322 -0.000009 2.151830 0.504172 -76.831600 -22.291500 -0.000108 -0.000004 10.065800 5.642540 -14.341500 -2.192480 -6.469440 -0.000000 -177.651000 -1.601600 5.558290 39.081100 -0.000007 -0.000012 0.010433 -0.010128 45.840800 40.985400 -0.000006 -0.000013 0.633825 -2.062700 -33.746800 11.754300 -0.000000 0.000003 -0.010060 -0.104098 -20.818200 -2.192510 6.469440 -0.000001 -169.778000 17.032000 146.989000 -39.081100 -0.002282 -0.040193 -0.008999 0.038422 17.783500 -40.985400 0.000008 0.000006 -2.293790 0.812335 -67.185800 -11.754300 -0.000006 -0.000006 -0.031238 -0.223082 -25.715300
0.000000 0.000000 0.000000 0.000000 0.000000 -0.000000 0.828391 90.800200 -333.800000 86.860800 1.310690 -9.505750 15.735700 0.000005 -0.000001 65.579800 81.334400 -62.789000 8.984550 -0.406207 -0.000000 8.242890 -7.121960 6.095960 16.377300 -0.000001 -0.000001 -1.344950 -0.956005 -2.089190 6.456720 -0.000001 -0.000000 -3.725700 3.050770 0.146732 12.994200 -0.242716 4.980390 -87.043400 -10.090800 -73.574900 5.348090 -0.000007 -0.000001 -76.709200 31.420000 -12.524100 24.328600 0.000019 0.000005 -8.084170 0.982553 -96.855000 22.291600 -0.000001 0.000005 8.195830 5.659500 -16.002400 12.994500 -0.242716 -4.980390 91.374400 -3.762490 -69.922300 -5.348130 -0.000001 -0.000004 -77.835600 28.081000 16.455100 -24.328900 0.000322 -0.000009 2.437520 0.553870 -77.214900 -22.291500 -0.000108 -0.000004 11.035800 5.642820 -14.360500 -2.192480 -6.469440 -0.000000 -176.620000 -4.281550 0.166981 39.081100 -0.000007 -0.000012 0.039191 -0.016519 67.137300 40.985400 -0.000006 -0.000013 -0.786805 -4.867550 -33.213300 11.754300 -0.000000 0.000003 -0.009491 -0.099803 -20.642500 -2.192510 6.469440 -0.000001 -168.324000 15.435600 147.093000 -39.081100 -0.002282 -0.040193 0.024149 -0.039897 27.582800 -40.985400 0.000008 0.000006 3.965770 -2.315690 -65.718200 -11.754300 -0.000006 -0.000006 -0.037597 -0.250386 -26.851800
0.000000 0.000000 0.000000 0.000000 0.000000 -0.000000 0.382451 87.327300 -325.837000 84.331700 -1.748110 -8.217650 15.735700 0.000005 -0.000001 76.166800 81.467200 -72.553300 8.984550 -0.406207 -0.000000 8.958710 -4.021520 7.538540 16.377300 -0.000001 -0.000001 -1.622940 -0.297676 -2.455010 6.456720 -0.000001 -0.000000 -3.350770 2.446500 -0.585170 12.994200 -0.242716 4.980390 -87.434100 -8.516670 -73.164100 5.348090 -0.000007 -0.000001 -78.023100 33.989900 -6.772380 24.328600 0.000019 0.000005 -5.078370 -0.337862 -86.162800 22.291600 -0.000001 0.000005 6.325110 5.657670 -15.817600 12.994500 -0.242716 -4.980390 90.344300 -0.997998 -70.973100 -5.348130 -0.000001 -0.000004 -71.825300 29.128200 6.685040 -24.328900 0.000322 -0.000009 1.286410 0.227690 -80.028900 -22.291500 -0.000108 -0.000004 13.045900 5.645880 -14.642300 -2.192480 -6.469440 -0.000000 -175.202000 -7.773950 -8.772650 39.081100 -0.000007 -0.000012 0.016296 0.000068 90.208100 40.985400 -0.000006 -0.000013 1.011230 -8.039860 -33.492600 11.754300 -0.000000 0.000003 -0.009632 -0.100874 -20.686400 -2.192510 6.469440 -0.000001 -167.738000 8.838430 145.217000 -39.081100 -0.002282 -0.040193 0.077401 -0.078164 43.483400 -40.985400 0.000008 0.000006 9.130430 -5.264020 -67.558700 -11.754300 -0.000006 -0.000006 -0.026244 -0.199704 -24.746200
0.000000 0.000000 0.000000 0.000000 0.000000 -0.000000 -0.009164 83.990000 -318.188000 82.289700 -4.642870 -4.388220 15.735700 0.000005 -0.000001 84.626900 80.056900 -80.504500 8.984550 -0.406207 -0.000000 12.111400 -1.689180 8.422770 16.377300 -0.000001 -0.000001 -2.464870 0.686641 -1.985310 6.456720 -0.000001 -0.000000 -3.870500 2.708210 -1.707120 12.994200 -0.242716 4.980390 -87.735100 -7.110330 -72.279000 5.348090 -0.000007 -0.000001 -78.956400 35.541500 -0.903330 24.328600 0.000019 0.000005 -2.639300 -0.829324 -72.543000 22.291600 -0.000001 0.000005 3.869900 5.660110 -16.095400 12.994500 -0.242716 -4.980390 89.224800 2.364370 -71.830200 -5.348130 -0.000001 -0.000004 -62.480100 30.539700 -8.770750 -24.328900 0.000322 -0.000009 0.171238 0.019700 -83.460300 -22.291500 -0.000108 -0.000004 15.767000 5.641720 -14.262300 -2.192480 -6.469440 -0.000000 -175.033000 -9.008140 -17.529100 39.081100 -0.000007 -0.000012 -0.305140 -0.110562 109.919000 40.985400 -0.000006 -0.000013 4.645830 -6.350220 -33.044100 11.754300 -0.000000 0.000003 -0.009815 -0.102264 -20.743200 -2.192510 6.469440 -0.000001 -167.118000 6.261890 148.908000 -39.081100 -0.002282 -0.040193 0.158080 -0.105286 55.788600 -40.985400 0.000008 0.000006 9.223560 -7.583370 -76.830600 -11.754300 -0.000006 -0.000006 -0.014727 -0.136094 -22.125300
